<svg width="74" height="73" viewBox="0 0 74 73" fill="none" xmlns="http://www.w3.org/2000/svg">
<ellipse rx="3.97393" ry="5.03293" transform="matrix(0.242781 -0.970081 0.969437 0.245342 21.109 37.1599)" fill="#F8BD4B"/>
<ellipse rx="3.97448" ry="5.03223" transform="matrix(0.185732 -0.9826 0.982218 0.187744 19.3372 27.256)" fill="#F8BD4B"/>
<ellipse rx="3.95965" ry="5.05113" transform="matrix(0.838551 -0.544824 0.540551 0.841312 26.8945 20.1396)" fill="#F8BD4B"/>
<ellipse rx="3.95542" ry="5.0565" transform="matrix(0.946296 -0.323303 0.320084 0.947389 36.9865 21.2475)" fill="#F8BD4B"/>
<path d="M29.1799 33.9024C28.71 31.143 31.1247 28.7602 33.8594 29.2849L39.1345 30.297C42.2964 30.9036 43.4778 34.8326 41.1801 37.0999L36.8115 41.4106C34.5138 43.6779 30.6296 42.4157 30.0863 39.2252L29.1799 33.9024Z" fill="#F8BD4B"/>
<path d="M54.7188 29.2723C54.7188 43.5244 43.2347 55.0446 29.1094 55.0446C14.9841 55.0446 3.5 43.5244 3.5 29.2723C3.5 15.0202 14.9841 3.5 29.1094 3.5C43.2347 3.5 54.7188 15.0202 54.7188 29.2723Z" stroke="#F8BD4B" stroke-width="7"/>
<line y1="-3.5" x2="30.5794" y2="-3.5" transform="matrix(0.705131 0.709077 -0.705131 0.709077 47.4375 51.3169)" stroke="#F8BD4B" stroke-width="7"/>
</svg>
