<svg width="147" height="161" viewBox="0 0 147 161" fill="none" xmlns="http://www.w3.org/2000/svg">
<path d="M70.1192 129.519L53.8585 127.01L64.3811 113.831L64.5431 113.629L64.5859 113.372L68.0168 92.8553L79.3972 98.2446L70.1192 129.519Z" fill="#DF6364" stroke="#A79898" stroke-width="2"/>
<path d="M25.898 99.2606L35.0663 112.923L42.5386 97.8047L42.6536 97.5719L42.8674 97.4245L59.9935 85.6168L50.2868 77.5958L25.898 99.2606Z" fill="#DF6364" stroke="#A79898" stroke-width="2"/>
<path d="M110.462 79.4475C100.724 91.3466 89.4526 100.046 79.1422 104.517C68.7786 109.011 59.6745 109.13 53.9319 104.431C48.1893 99.7313 46.5057 90.7835 48.861 79.7357C51.2042 68.7446 57.5018 55.9752 67.2395 44.0762C76.867 32.3118 91.1188 26.1061 103.06 22.8484C109.019 21.2228 114.372 20.3396 118.233 19.8631C120.164 19.6249 121.719 19.4886 122.79 19.4119C123.079 19.3912 123.333 19.3748 123.549 19.3619C123.579 19.5763 123.613 19.8283 123.65 20.116C123.787 21.1804 123.961 22.7324 124.109 24.6716C124.406 28.5512 124.599 33.9729 124.184 40.1354C123.353 52.4854 120.089 67.6832 110.462 79.4475Z" fill="#8FCAF4" stroke="#A79898" stroke-width="2"/>
<path d="M81.0411 32.1513L121.286 58.3L118.088 67.0146L113.168 75.8729L107.254 83.2642L100.903 89.6148L57.8603 57.6604L66.2767 45.0697L73.6568 37.6895L81.0411 32.1513Z" fill="#C4C4C4" stroke="#A79898" stroke-width="2"/>
<circle cx="83.5" cy="54.4321" r="12.5" fill="black" stroke="#DF6364" stroke-width="2"/>
<rect x="6" y="104.022" width="50" height="3" rx="1.5" transform="rotate(-38.3488 6 104.022)" fill="#C4C4C4"/>
<rect x="70" y="149.683" width="45" height="3" rx="1.5" transform="rotate(-76.1034 70 149.683)" fill="#C4C4C4"/>
<rect x="45" y="141.363" width="15" height="3" rx="1.5" transform="rotate(-55.508 45 141.363)" fill="#C4C4C4"/>
<rect x="59" y="144.958" width="15" height="3" rx="1.5" transform="rotate(-68.5167 59 144.958)" fill="#C4C4C4"/>
<rect x="19.9014" y="122.007" width="15" height="3" rx="1.5" transform="rotate(-41.2596 19.9014 122.007)" fill="#C4C4C4"/>
<rect x="13" y="111.758" width="15" height="3" rx="1.5" transform="rotate(-35.7239 13 111.758)" fill="#C4C4C4"/>
</svg>
