<svg width="255" height="66" viewBox="0 0 255 66" fill="none" xmlns="http://www.w3.org/2000/svg">
<path d="M28.7262 52.7545L23.476 51.9504L27.2092 47.3108L27.3732 47.107L27.4166 46.8493L28.7137 39.1522L32.2901 40.8329L28.7262 52.7545Z" fill="#DF6364" stroke="#A79898" stroke-width="2"/>
<path d="M11.537 41.0339L14.494 45.4067L17.1509 40.0722L17.2661 39.8411L17.4798 39.6948L23.9566 35.2635L20.9136 32.7682L11.537 41.0339Z" fill="#DF6364" stroke="#A79898" stroke-width="2"/>
<path d="M45.4499 32.3941C41.4503 37.2441 36.8385 40.7663 32.6565 42.5659C28.4215 44.3884 24.915 44.343 22.7857 42.6139C20.6565 40.8847 19.9181 37.4827 20.8805 33.0026C21.831 28.5786 24.398 23.3958 28.3975 18.5458C32.2863 13.8303 38.0717 11.3151 42.9822 9.98575C45.4253 9.32434 47.6212 8.96476 49.2048 8.77085C49.8627 8.69029 50.4137 8.63848 50.8313 8.60549C50.8813 9.01822 50.9391 9.56441 50.9897 10.2203C51.1114 11.7992 51.1906 14.0063 51.0205 16.5137C50.6787 21.5533 49.3386 27.6786 45.4499 32.3941Z" fill="#8FCAF4" stroke="#A79898" stroke-width="2"/>
<path d="M44.1335 33.9478L41.877 36.1871L24.8447 23.6393L27.998 18.9581L30.994 15.985L33.7 13.971L49.6892 24.2803L48.5377 27.3939L46.5396 30.9638L44.1335 33.9478Z" fill="#C4C4C4" stroke="#A79898" stroke-width="2"/>
<path d="M39.3102 22.4471C39.3102 24.9624 37.2534 27.0144 34.7 27.0144C32.1466 27.0144 30.0898 24.9624 30.0898 22.4471C30.0898 19.9319 32.1466 17.8799 34.7 17.8799C37.2534 17.8799 39.3102 19.9319 39.3102 22.4471Z" fill="black" stroke="#DF6364" stroke-width="2"/>
<rect width="20.7173" height="1.24085" rx="0.620423" transform="matrix(0.786558 -0.617516 0.623374 0.781924 2.49316 42.8979)" fill="#C4C4C4"/>
<rect width="18.5658" height="1.24615" rx="0.623076" transform="matrix(0.241912 -0.970298 0.971158 0.238439 29.0898 61.7275)" fill="#C4C4C4"/>
<rect width="6.20117" height="1.24365" rx="0.621826" transform="matrix(0.569244 -0.822169 0.826226 0.563339 18.7002 58.2969)" fill="#C4C4C4"/>
<rect width="6.19226" height="1.24543" rx="0.622713" transform="matrix(0.36867 -0.929561 0.931476 0.363802 24.5186 59.7793)" fill="#C4C4C4"/>
<rect width="6.21282" height="1.24132" rx="0.620662" transform="matrix(0.754231 -0.656609 0.662328 0.749214 8.27051 50.3149)" fill="#C4C4C4"/>
<rect width="6.2173" height="1.24043" rx="0.620213" transform="matrix(0.813956 -0.580927 0.586833 0.809708 5.40234 46.0879)" fill="#C4C4C4"/>
<path d="M65.872 32.776C65.872 32.1787 65.928 31.6093 66.04 31.068C66.1707 30.508 66.376 30.0133 66.656 29.584C66.936 29.136 67.3 28.7813 67.748 28.52C68.196 28.2587 68.7467 28.128 69.4 28.128C70.016 28.128 70.5387 28.268 70.968 28.548C71.416 28.828 71.7707 29.192 72.032 29.64C72.2933 30.088 72.48 30.592 72.592 31.152C72.7227 31.712 72.788 32.272 72.788 32.832C72.788 33.4293 72.7227 34.008 72.592 34.568C72.48 35.1093 72.284 35.5947 72.004 36.024C71.7427 36.4347 71.388 36.7707 70.94 37.032C70.5107 37.2747 69.9693 37.396 69.316 37.396C68.6627 37.396 68.112 37.2653 67.664 37.004C67.2347 36.7427 66.88 36.3973 66.6 35.968C66.3387 35.52 66.152 35.0253 66.04 34.484C65.928 33.924 65.872 33.3547 65.872 32.776ZM76.624 45.068V25.524H72.844V27.372H72.788C72.34 26.5693 71.7147 26 70.912 25.664C70.128 25.3093 69.288 25.132 68.392 25.132C67.2907 25.132 66.3293 25.3467 65.508 25.776C64.7053 26.2053 64.0333 26.784 63.492 27.512C62.9507 28.2213 62.5493 29.0427 62.288 29.976C62.0267 30.9093 61.896 31.8707 61.896 32.86C61.896 34.26 62.092 35.4453 62.484 36.416C62.876 37.368 63.3707 38.1427 63.968 38.74C64.5653 39.3187 65.2187 39.7387 65.928 40C66.656 40.2427 67.356 40.364 68.028 40.364C68.924 40.364 69.792 40.196 70.632 39.86C71.472 39.524 72.1253 38.964 72.592 38.18H72.648V45.068H76.624ZM93.2092 40V25.524H89.2332V33.112C89.2332 34.5867 88.9905 35.6507 88.5052 36.304C88.0199 36.9387 87.2359 37.256 86.1532 37.256C85.2012 37.256 84.5385 36.9667 84.1652 36.388C83.7919 35.7907 83.6052 34.8947 83.6052 33.7V25.524H79.6292V34.428C79.6292 35.324 79.7039 36.1453 79.8532 36.892C80.0212 37.62 80.3012 38.2453 80.6932 38.768C81.0852 39.272 81.6172 39.664 82.2892 39.944C82.9799 40.224 83.8572 40.364 84.9212 40.364C85.7612 40.364 86.5825 40.1773 87.3852 39.804C88.1879 39.4307 88.8412 38.824 89.3452 37.984H89.4292V40H93.2092ZM100.315 23.284V20.008H96.3388V23.284H100.315ZM96.3388 25.524V40H100.315V25.524H96.3388ZM113.302 30.62H117.194C117.138 29.6867 116.914 28.884 116.522 28.212C116.13 27.5213 115.616 26.952 114.982 26.504C114.366 26.0373 113.656 25.692 112.854 25.468C112.07 25.244 111.248 25.132 110.39 25.132C109.214 25.132 108.168 25.328 107.254 25.72C106.339 26.112 105.564 26.6627 104.93 27.372C104.295 28.0627 103.81 28.8933 103.474 29.864C103.156 30.816 102.998 31.852 102.998 32.972C102.998 34.0547 103.175 35.0533 103.53 35.968C103.884 36.864 104.379 37.6387 105.014 38.292C105.648 38.9453 106.414 39.4587 107.31 39.832C108.224 40.1867 109.223 40.364 110.306 40.364C112.228 40.364 113.806 39.86 115.038 38.852C116.27 37.844 117.016 36.3787 117.278 34.456H113.442C113.311 35.352 112.984 36.0707 112.462 36.612C111.958 37.1347 111.23 37.396 110.278 37.396C109.662 37.396 109.139 37.256 108.71 36.976C108.28 36.696 107.935 36.3413 107.674 35.912C107.431 35.464 107.254 34.9693 107.142 34.428C107.03 33.8867 106.974 33.3547 106.974 32.832C106.974 32.2907 107.03 31.7493 107.142 31.208C107.254 30.648 107.44 30.144 107.702 29.696C107.982 29.2293 108.336 28.856 108.766 28.576C109.195 28.2773 109.727 28.128 110.362 28.128C112.06 28.128 113.04 28.9587 113.302 30.62ZM119.888 20.008V40H123.864V35.016L125.404 33.532L129.38 40H134.196L128.12 30.844L133.58 25.524H128.876L123.864 30.732V20.008H119.888ZM145.878 32.72C145.878 33.3173 145.822 33.896 145.71 34.456C145.598 35.016 145.411 35.52 145.15 35.968C144.889 36.3973 144.534 36.7427 144.086 37.004C143.657 37.2653 143.115 37.396 142.462 37.396C141.846 37.396 141.314 37.2653 140.866 37.004C140.437 36.724 140.073 36.3693 139.774 35.94C139.494 35.492 139.289 34.988 139.158 34.428C139.027 33.868 138.962 33.308 138.962 32.748C138.962 32.1507 139.018 31.5813 139.13 31.04C139.261 30.48 139.457 29.9853 139.718 29.556C139.998 29.1267 140.362 28.7813 140.81 28.52C141.258 28.2587 141.809 28.128 142.462 28.128C143.115 28.128 143.657 28.2587 144.086 28.52C144.515 28.7813 144.861 29.1267 145.122 29.556C145.402 29.9667 145.598 30.452 145.71 31.012C145.822 31.5533 145.878 32.1227 145.878 32.72ZM145.934 38.152V40H149.714V20.008H145.738V27.288H145.682C145.234 26.5787 144.618 26.0467 143.834 25.692C143.069 25.3187 142.257 25.132 141.398 25.132C140.334 25.132 139.401 25.3467 138.598 25.776C137.795 26.1867 137.123 26.7373 136.582 27.428C136.059 28.1187 135.658 28.9213 135.378 29.836C135.117 30.732 134.986 31.6653 134.986 32.636C134.986 33.644 135.117 34.6147 135.378 35.548C135.658 36.4813 136.059 37.312 136.582 38.04C137.123 38.7493 137.805 39.3187 138.626 39.748C139.447 40.1587 140.399 40.364 141.482 40.364C142.434 40.364 143.283 40.196 144.03 39.86C144.795 39.5053 145.411 38.936 145.878 38.152H145.934ZM156.807 23.284V20.008H152.831V23.284H156.807ZM152.831 25.524V40H156.807V25.524H152.831ZM160.05 20.008V40H164.026V20.008H160.05ZM171.245 23.284V20.008H167.269V23.284H171.245ZM167.269 25.524V40H171.245V25.524H167.269ZM181.123 36.584C180.507 36.584 179.994 36.4533 179.583 36.192C179.173 35.9307 178.837 35.5947 178.575 35.184C178.333 34.7733 178.155 34.316 178.043 33.812C177.95 33.2893 177.903 32.7667 177.903 32.244C177.903 31.7027 177.959 31.1893 178.071 30.704C178.202 30.2 178.398 29.7613 178.659 29.388C178.939 28.996 179.275 28.688 179.667 28.464C180.078 28.24 180.563 28.128 181.123 28.128C181.777 28.128 182.318 28.2493 182.747 28.492C183.177 28.7347 183.522 29.0613 183.783 29.472C184.045 29.8827 184.231 30.3587 184.343 30.9C184.455 31.4227 184.511 31.9827 184.511 32.58C184.511 33.1027 184.437 33.6067 184.287 34.092C184.157 34.5587 183.951 34.9787 183.671 35.352C183.391 35.7253 183.037 36.024 182.607 36.248C182.178 36.472 181.683 36.584 181.123 36.584ZM188.291 39.076V25.524H184.511V27.456H184.455C183.97 26.616 183.363 26.0187 182.635 25.664C181.926 25.3093 181.095 25.132 180.143 25.132C179.135 25.132 178.239 25.328 177.455 25.72C176.69 26.112 176.046 26.644 175.523 27.316C175.001 27.9693 174.599 28.7347 174.319 29.612C174.058 30.4707 173.927 31.3667 173.927 32.3C173.927 33.2893 174.039 34.232 174.263 35.128C174.506 36.0053 174.879 36.78 175.383 37.452C175.887 38.1053 176.531 38.628 177.315 39.02C178.099 39.3933 179.033 39.58 180.115 39.58C180.993 39.58 181.823 39.4027 182.607 39.048C183.41 38.6747 184.026 38.1053 184.455 37.34H184.511V39.244C184.53 40.2707 184.278 41.12 183.755 41.792C183.251 42.464 182.439 42.8 181.319 42.8C180.61 42.8 179.985 42.6507 179.443 42.352C178.902 42.072 178.538 41.5587 178.351 40.812H174.403C174.459 41.6333 174.683 42.3333 175.075 42.912C175.486 43.5093 175.99 43.9947 176.587 44.368C177.203 44.7413 177.875 45.012 178.603 45.18C179.35 45.3667 180.078 45.46 180.787 45.46C182.449 45.46 183.774 45.236 184.763 44.788C185.753 44.34 186.509 43.7893 187.031 43.136C187.554 42.5013 187.89 41.8107 188.039 41.064C188.207 40.3173 188.291 39.6547 188.291 39.076ZM201.236 31.208H194.768C194.787 30.928 194.843 30.6107 194.936 30.256C195.048 29.9013 195.226 29.5653 195.468 29.248C195.73 28.9307 196.066 28.6693 196.476 28.464C196.906 28.24 197.438 28.128 198.072 28.128C199.043 28.128 199.762 28.3893 200.228 28.912C200.714 29.4347 201.05 30.2 201.236 31.208ZM194.768 33.728H205.212C205.287 32.608 205.194 31.5347 204.932 30.508C204.671 29.4813 204.242 28.5667 203.644 27.764C203.066 26.9613 202.319 26.3267 201.404 25.86C200.49 25.3747 199.416 25.132 198.184 25.132C197.083 25.132 196.075 25.328 195.16 25.72C194.264 26.112 193.49 26.6533 192.836 27.344C192.183 28.016 191.679 28.8187 191.324 29.752C190.97 30.6853 190.792 31.6933 190.792 32.776C190.792 33.896 190.96 34.9227 191.296 35.856C191.651 36.7893 192.146 37.592 192.78 38.264C193.415 38.936 194.19 39.4587 195.104 39.832C196.019 40.1867 197.046 40.364 198.184 40.364C199.827 40.364 201.227 39.9907 202.384 39.244C203.542 38.4973 204.4 37.256 204.96 35.52H201.46C201.33 35.968 200.975 36.3973 200.396 36.808C199.818 37.2 199.127 37.396 198.324 37.396C197.204 37.396 196.346 37.1067 195.748 36.528C195.151 35.9493 194.824 35.016 194.768 33.728ZM207.571 25.524V40H211.547V32.412C211.547 30.9373 211.789 29.8827 212.275 29.248C212.76 28.5947 213.544 28.268 214.627 28.268C215.579 28.268 216.241 28.5667 216.615 29.164C216.988 29.7427 217.175 30.6293 217.175 31.824V40H221.151V31.096C221.151 30.2 221.067 29.388 220.899 28.66C220.749 27.9133 220.479 27.288 220.087 26.784C219.695 26.2613 219.153 25.86 218.463 25.58C217.791 25.2813 216.923 25.132 215.859 25.132C215.019 25.132 214.197 25.328 213.395 25.72C212.592 26.0933 211.939 26.7 211.435 27.54H211.351V25.524H207.571ZM234.024 30.62H237.916C237.86 29.6867 237.636 28.884 237.244 28.212C236.852 27.5213 236.339 26.952 235.704 26.504C235.088 26.0373 234.379 25.692 233.576 25.468C232.792 25.244 231.971 25.132 231.112 25.132C229.936 25.132 228.891 25.328 227.976 25.72C227.062 26.112 226.287 26.6627 225.652 27.372C225.018 28.0627 224.532 28.8933 224.196 29.864C223.879 30.816 223.72 31.852 223.72 32.972C223.72 34.0547 223.898 35.0533 224.252 35.968C224.607 36.864 225.102 37.6387 225.736 38.292C226.371 38.9453 227.136 39.4587 228.032 39.832C228.947 40.1867 229.946 40.364 231.028 40.364C232.951 40.364 234.528 39.86 235.76 38.852C236.992 37.844 237.739 36.3787 238 34.456H234.164C234.034 35.352 233.707 36.0707 233.184 36.612C232.68 37.1347 231.952 37.396 231 37.396C230.384 37.396 229.862 37.256 229.432 36.976C229.003 36.696 228.658 36.3413 228.396 35.912C228.154 35.464 227.976 34.9693 227.864 34.428C227.752 33.8867 227.696 33.3547 227.696 32.832C227.696 32.2907 227.752 31.7493 227.864 31.208C227.976 30.648 228.163 30.144 228.424 29.696C228.704 29.2293 229.059 28.856 229.488 28.576C229.918 28.2773 230.45 28.128 231.084 28.128C232.783 28.128 233.763 28.9587 234.024 30.62ZM249.99 31.208H243.522C243.541 30.928 243.597 30.6107 243.69 30.256C243.802 29.9013 243.98 29.5653 244.222 29.248C244.484 28.9307 244.82 28.6693 245.23 28.464C245.66 28.24 246.192 28.128 246.826 28.128C247.797 28.128 248.516 28.3893 248.982 28.912C249.468 29.4347 249.804 30.2 249.99 31.208ZM243.522 33.728H253.966C254.041 32.608 253.948 31.5347 253.686 30.508C253.425 29.4813 252.996 28.5667 252.398 27.764C251.82 26.9613 251.073 26.3267 250.158 25.86C249.244 25.3747 248.17 25.132 246.938 25.132C245.837 25.132 244.829 25.328 243.914 25.72C243.018 26.112 242.244 26.6533 241.59 27.344C240.937 28.016 240.433 28.8187 240.078 29.752C239.724 30.6853 239.546 31.6933 239.546 32.776C239.546 33.896 239.714 34.9227 240.05 35.856C240.405 36.7893 240.9 37.592 241.534 38.264C242.169 38.936 242.944 39.4587 243.858 39.832C244.773 40.1867 245.8 40.364 246.938 40.364C248.581 40.364 249.981 39.9907 251.138 39.244C252.296 38.4973 253.154 37.256 253.714 35.52H250.214C250.084 35.968 249.729 36.3973 249.15 36.808C248.572 37.2 247.881 37.396 247.078 37.396C245.958 37.396 245.1 37.1067 244.502 36.528C243.905 35.9493 243.578 35.016 243.522 33.728Z" fill="#54575A"/>
</svg>
